<?xml version="1.0" encoding="UTF-8" standalone="no"?>
<!-- Created with Inkscape (http://www.inkscape.org/) -->

<svg
   width="25mm"
   height="25mm"
   viewBox="0 0 25 25"
   version="1.1"
   id="svg1"
   inkscape:version="1.4 (e7c3feb100, 2024-10-09)"
   sodipodi:docname="alif-maddah.svg"
   xmlns:inkscape="http://www.inkscape.org/namespaces/inkscape"
   xmlns:sodipodi="http://sodipodi.sourceforge.net/DTD/sodipodi-0.dtd"
   xmlns="http://www.w3.org/2000/svg"
   xmlns:svg="http://www.w3.org/2000/svg">
  <sodipodi:namedview
     id="namedview1"
     pagecolor="#ffffff"
     bordercolor="#000000"
     borderopacity="0.25"
     inkscape:showpageshadow="2"
     inkscape:pageopacity="0.0"
     inkscape:pagecheckerboard="true"
     inkscape:deskcolor="#d1d1d1"
     inkscape:document-units="mm"
     inkscape:zoom="1.8322713"
     inkscape:cx="1.3644268"
     inkscape:cy="18.556204"
     inkscape:window-width="1920"
     inkscape:window-height="1011"
     inkscape:window-x="0"
     inkscape:window-y="0"
     inkscape:window-maximized="1"
     inkscape:current-layer="layer1">
    <inkscape:page
       x="-5.8844429e-15"
       y="0"
       width="26.019987"
       height="26.019999"
       id="page2"
       margin="0"
       bleed="0" />
  </sodipodi:namedview>
  <defs
     id="defs1" />
  <g
     inkscape:label="Layer 1"
     inkscape:groupmode="layer"
     id="layer1"
     transform="translate(538.25118,-26.717916)">
    <path
       d="m -534.20555,38.630541 v 0.98146 h 17.47543 v -0.98146 z m 0.01,0.01126 h 17.45665 v 0.960817 h -17.45665 z"
       id="rect12-4"
       style="stroke-width:0.960781" />
    <path
       style="stroke-width:0.960781;stroke-linejoin:round"
       d="m -533.71016,38.636172 v 0.960816 h 16.49591 v -0.960816 z"
       id="path13-3" />
    <path
       d="m -533.66701,29.810545 v 18.947981 h 0.97951 V 29.810545 Z m 0.01,0.0094 h 0.96075 v 18.929214 h -0.96075 z"
       id="rect13-9"
       style="stroke-width:0.960781" />
    <path
       style="stroke-width:0.960781;stroke-linejoin:round"
       d="m -533.65199,30.296583 v 17.966521 h 0.96075 V 30.296583 Z"
       id="path14-2" />
    <path
       d="m -518.24818,29.810545 v 18.947981 h 0.97951 V 29.810545 Z m 0.01,0.0094 h 0.96075 v 18.929214 h -0.96075 z"
       id="rect14-8"
       style="stroke-width:0.960781" />
    <path
       style="stroke-width:0.960781;stroke-linejoin:round"
       d="m -518.23317,30.296583 v 17.966521 h 0.96074 V 30.296583 Z"
       id="path15-9" />
    <path
       d="m -538.25118,26.717916 v 25 h 25 v -25 z m 0.0112,0.0094 h 24.97936 v 24.98125 h -24.97936 z"
       id="rect15-6"
       style="stroke-width:0.960781" />
    <path
       style="stroke-width:0.960781;stroke-linejoin:round"
       d="m -537.75392,26.721669 a 0.48042041,0.48045639 0 0 0 -0.48037,0.480408 v 24.020418 a 0.48042041,0.48045639 0 0 0 0.48037,0.480408 h 24.01862 a 0.48042041,0.48045639 0 0 0 0.48037,-0.480408 V 27.202077 a 0.48042041,0.48045639 0 0 0 -0.48037,-0.480408 h -12.00931 z m 0.48037,0.960817 h 11.52894 11.52894 v 23.059601 h -23.05788 z"
       id="path16-4"
       inkscape:export-filename="alif-maddah.svg"
       inkscape:export-xdpi="1000"
       inkscape:export-ydpi="1000" />
  </g>
</svg>
