<?xml version="1.0" encoding="UTF-8" standalone="no"?>
<!-- Created with Inkscape (http://www.inkscape.org/) -->

<svg
   width="25mm"
   height="25.000002mm"
   viewBox="0 0 25 25.000002"
   version="1.1"
   id="svg1"
   xmlns="http://www.w3.org/2000/svg"
   xmlns:svg="http://www.w3.org/2000/svg">
  <defs
     id="defs1">
    <clipPath
       clipPathUnits="userSpaceOnUse"
       id="clipPath316">
      <rect
         x="-0.0011017253"
         y="0"
         width="2500"
         height="2500"
         id="rect316"
         style="stroke-width:1" />
    </clipPath>
    <clipPath
       clipPathUnits="userSpaceOnUse"
       id="clipPath249">
      <rect
         x="-0.0011017253"
         y="0"
         width="2500"
         height="2500"
         id="rect249"
         style="stroke-width:1" />
    </clipPath>
    <clipPath
       clipPathUnits="userSpaceOnUse"
       id="clipPath317">
      <rect
         x="-0.0011017253"
         y="0"
         width="2500"
         height="2500"
         id="rect317"
         style="stroke-width:1" />
    </clipPath>
    <clipPath
       clipPathUnits="userSpaceOnUse"
       id="clipPath375">
      <rect
         x="-0.0011017253"
         y="0"
         width="2500"
         height="2500"
         id="rect375"
         style="stroke-width:1" />
    </clipPath>
    <clipPath
       clipPathUnits="userSpaceOnUse"
       id="clipPath363">
      <rect
         x="-0.0011017253"
         y="0"
         width="2500"
         height="2500"
         id="rect363"
         style="stroke-width:1" />
    </clipPath>
  </defs>
  <g
     id="layer1"
     transform="translate(-57.252133,-27.222924)">
    <g
       id="id3-5"
       style="fill:none;stroke:#000000;stroke-opacity:1"
       transform="matrix(0.01,0,0,0.01,57.252144,27.222922)"
       clip-path="url(#clipPath363)">
      <rect
         class="BoundingBox"
         stroke="none"
         fill="none"
         x="176"
         y="1981"
         width="2104"
         height="101"
         id="rect12-17"
         style="fill:none;stroke:#000000;stroke-opacity:1" />
      <path
         fill="none"
         stroke="#3465a4"
         stroke-width="100"
         stroke-linejoin="round"
         d="M 226,2031 H 2229"
         id="path13-89"
         style="fill:none;stroke:#000000;stroke-opacity:1" />
    </g>
    <g
       id="id4-16"
       style="fill:none;stroke:#000000;stroke-opacity:1"
       transform="matrix(0.01,0,0,0.01,57.252144,27.222922)"
       clip-path="url(#clipPath375)">
      <rect
         class="BoundingBox"
         stroke="none"
         fill="none"
         x="176"
         y="359"
         width="2104"
         height="101"
         id="rect13-43"
         style="fill:none;stroke:#000000;stroke-opacity:1" />
      <path
         fill="none"
         stroke="#3465a4"
         stroke-width="100"
         stroke-linejoin="round"
         d="M 226,409 H 2229"
         id="path14-54"
         style="fill:none;stroke:#000000;stroke-opacity:1" />
    </g>
    <g
       id="id5-33"
       style="fill:none;stroke:#000000;stroke-opacity:1"
       transform="matrix(0.01,0,0,0.01,57.252144,27.222922)"
       clip-path="url(#clipPath317)">
      <rect
         class="BoundingBox"
         stroke="none"
         fill="none"
         x="540"
         y="519"
         width="1362"
         height="1413"
         id="rect14-5"
         style="fill:none;stroke:#000000;stroke-opacity:1" />
      <path
         fill="none"
         stroke="#3465a4"
         stroke-width="100"
         stroke-linejoin="round"
         d="m 1221,1881 c -111,0 -220,-30 -316,-88 -96,-57 -175,-140 -231,-240 -55,-100 -84,-213 -84,-328 0,-115 29,-228 84,-328 56,-100 135,-183 231,-240 96,-58 205,-88 315,-88 111,0 220,30 316,88 96,57 175,140 231,240 55,100 84,213 84,328 0,115 -29,228 -84,328 -56,100 -135,183 -231,240 -96,58 -205,88 -315,88 z"
         id="path15-01"
         style="fill:none;stroke:#000000;stroke-opacity:1" />
    </g>
    <g
       id="id6-70"
       style="fill:none;stroke:#000000;stroke-opacity:1"
       transform="matrix(0.01,0,0,0.01,57.252144,27.222922)"
       clip-path="url(#clipPath249)">
      <rect
         class="BoundingBox"
         stroke="none"
         fill="none"
         x="-50"
         y="-50"
         width="2601"
         height="2601"
         id="rect15-7"
         style="fill:none;stroke:#000000;stroke-opacity:1" />
      <path
         fill="none"
         stroke="#3465a4"
         stroke-width="100"
         stroke-linejoin="round"
         d="M 1250,0 H 2500 V 2500 H 0 V 0 Z"
         id="path16-89"
         style="fill:none;stroke:#000000;stroke-opacity:1" />
    </g>
    <g
       id="id7-9"
       style="fill:none;stroke:#000000;stroke-opacity:1"
       transform="matrix(0.01,0,0,0.01,57.252144,27.222922)"
       clip-path="url(#clipPath316)">
      <rect
         class="BoundingBox"
         stroke="none"
         fill="none"
         x="177"
         y="150"
         width="2104"
         height="101"
         id="rect16-4"
         style="fill:none;stroke:#000000;stroke-opacity:1" />
      <path
         fill="none"
         stroke="#3465a4"
         stroke-width="100"
         stroke-linejoin="round"
         d="M 227,200 H 2230"
         id="path17-6"
         style="fill:none;stroke:#000000;stroke-opacity:1" />
    </g>
  </g>
</svg>
