<?xml version="1.0" encoding="UTF-8" standalone="no"?>
<!-- Created with Inkscape (http://www.inkscape.org/) -->

<svg
   width="24.999992mm"
   height="25.000002mm"
   viewBox="0 0 24.999992 25.000002"
   version="1.1"
   id="svg1"
   xmlns="http://www.w3.org/2000/svg"
   xmlns:svg="http://www.w3.org/2000/svg">
  <defs
     id="defs1">
    <clipPath
       clipPathUnits="userSpaceOnUse"
       id="clipPath330">
      <rect
         x="-0.0055948892"
         y="0"
         width="2500"
         height="2500"
         id="rect330"
         style="stroke-width:1" />
    </clipPath>
    <clipPath
       clipPathUnits="userSpaceOnUse"
       id="clipPath334">
      <rect
         x="-0.0055948892"
         y="0"
         width="2500"
         height="2500"
         id="rect334"
         style="stroke-width:1" />
    </clipPath>
    <clipPath
       clipPathUnits="userSpaceOnUse"
       id="clipPath384">
      <rect
         x="-0.0055948892"
         y="0"
         width="2500"
         height="2500"
         id="rect384"
         style="stroke-width:1" />
    </clipPath>
    <clipPath
       clipPathUnits="userSpaceOnUse"
       id="clipPath299">
      <rect
         x="-0.0055948892"
         y="0"
         width="2500"
         height="2500"
         id="rect299"
         style="stroke-width:1" />
    </clipPath>
    <clipPath
       clipPathUnits="userSpaceOnUse"
       id="clipPath369">
      <rect
         x="-0.0055948892"
         y="0"
         width="2500"
         height="2500"
         id="rect369"
         style="stroke-width:1" />
    </clipPath>
  </defs>
  <g
     id="layer1"
     transform="translate(-477.25275,-27.222924)">
    <g
       id="id3-34"
       style="fill:none;stroke:#000000;stroke-opacity:1"
       transform="matrix(0.01,0,0,0.01,477.2528,27.222922)"
       clip-path="url(#clipPath369)">
      <rect
         class="BoundingBox"
         stroke="none"
         fill="none"
         x="186"
         y="350"
         width="2105"
         height="101"
         id="rect12-71"
         style="fill:none;stroke:#000000;stroke-opacity:1" />
      <path
         fill="none"
         stroke="#3465a4"
         stroke-width="100"
         stroke-linejoin="round"
         d="M 236,400 H 2240"
         id="path13-344"
         style="fill:none;stroke:#000000;stroke-opacity:1" />
    </g>
    <g
       id="id4-64"
       style="fill:none;stroke:#000000;stroke-opacity:1"
       transform="matrix(0.01,0,0,0.01,477.2528,27.222922)"
       clip-path="url(#clipPath299)">
      <rect
         class="BoundingBox"
         stroke="none"
         fill="none"
         x="186"
         y="1971"
         width="2105"
         height="101"
         id="rect13-98"
         style="fill:none;stroke:#000000;stroke-opacity:1" />
      <path
         fill="none"
         stroke="#3465a4"
         stroke-width="100"
         stroke-linejoin="round"
         d="M 236,2021 H 2240"
         id="path14-42"
         style="fill:none;stroke:#000000;stroke-opacity:1" />
    </g>
    <g
       id="id5-274"
       style="fill:none;stroke:#000000;stroke-opacity:1"
       transform="matrix(0.01,0,0,0.01,477.2528,27.222922)"
       clip-path="url(#clipPath384)">
      <rect
         class="BoundingBox"
         stroke="none"
         fill="none"
         x="186"
         y="350"
         width="2105"
         height="1723"
         id="rect14-4"
         style="fill:none;stroke:#000000;stroke-opacity:1" />
      <path
         fill="none"
         stroke="#3465a4"
         stroke-width="100"
         stroke-linejoin="round"
         d="M 236,2022 2240,400"
         id="path15-056"
         style="fill:none;stroke:#000000;stroke-opacity:1" />
    </g>
    <g
       id="id6-40"
       style="fill:none;stroke:#000000;stroke-opacity:1"
       transform="matrix(0.01,0,0,0.01,477.2528,27.222922)"
       clip-path="url(#clipPath334)">
      <rect
         class="BoundingBox"
         stroke="none"
         fill="none"
         x="587"
         y="477"
         width="1305"
         height="1474"
         id="rect15-32"
         style="fill:none;stroke:#000000;stroke-opacity:1" />
      <path
         fill="none"
         stroke="#3465a4"
         stroke-width="100"
         stroke-linejoin="round"
         d="m 1841,1214 c 0,120 -28,238 -81,343 -52,104 -128,191 -220,251 -92,60 -195,92 -301,92 -106,0 -209,-32 -301,-92 -92,-60 -168,-147 -220,-251 -53,-105 -81,-223 -81,-343 0,-121 28,-239 81,-344 52,-104 128,-191 220,-251 92,-60 195,-92 301,-92 106,0 209,32 301,92 92,60 168,147 220,251 53,105 81,223 81,343 z"
         id="path16-08"
         style="fill:none;stroke:#000000;stroke-opacity:1" />
    </g>
    <g
       id="id7-92"
       style="fill:none;stroke:#000000;stroke-opacity:1"
       transform="matrix(0.01,0,0,0.01,477.2528,27.222922)"
       clip-path="url(#clipPath330)">
      <rect
         class="BoundingBox"
         stroke="none"
         fill="none"
         x="-50"
         y="-50"
         width="2601"
         height="2601"
         id="rect16-35"
         style="fill:none;stroke:#000000;stroke-opacity:1" />
      <path
         fill="none"
         stroke="#3465a4"
         stroke-width="100"
         stroke-linejoin="round"
         d="M 1250,0 H 2500 V 2500 H 0 V 0 Z"
         id="path17-48"
         style="fill:none;stroke:#000000;stroke-opacity:1" />
    </g>
  </g>
</svg>
