<?xml version="1.0" encoding="UTF-8" standalone="no"?>
<!-- Created with Inkscape (http://www.inkscape.org/) -->

<svg
   width="25.000025mm"
   height="25.000002mm"
   viewBox="0 0 25.000025 25.000002"
   version="1.1"
   id="svg1"
   xmlns="http://www.w3.org/2000/svg"
   xmlns:svg="http://www.w3.org/2000/svg">
  <defs
     id="defs1">
    <clipPath
       clipPathUnits="userSpaceOnUse"
       id="clipPath377">
      <rect
         x="-0.0014241537"
         y="0"
         width="2500"
         height="2500"
         id="rect377"
         style="stroke-width:1" />
    </clipPath>
    <clipPath
       clipPathUnits="userSpaceOnUse"
       id="clipPath248">
      <rect
         x="-0.0014241537"
         y="0"
         width="2500"
         height="2500"
         id="rect248"
         style="stroke-width:1" />
    </clipPath>
    <clipPath
       clipPathUnits="userSpaceOnUse"
       id="clipPath332">
      <rect
         x="-0.0014241537"
         y="0"
         width="2500"
         height="2500"
         id="rect332"
         style="stroke-width:1" />
    </clipPath>
  </defs>
  <g
     id="layer1"
     transform="translate(-652.25273,-27.222924)">
    <g
       id="id3-02"
       style="fill:none;stroke:#000000;stroke-opacity:1"
       transform="matrix(0.01,0,0,0.01,652.2528,27.222922)"
       clip-path="url(#clipPath332)">
      <rect
         class="BoundingBox"
         stroke="none"
         fill="none"
         x="185"
         y="303"
         width="2104"
         height="1972"
         id="rect12-59"
         style="fill:none;stroke:#000000;stroke-opacity:1" />
      <path
         fill="none"
         stroke="#3465a4"
         stroke-width="100"
         stroke-linejoin="round"
         d="M 1237,2224 H 235 V 353 h 2003 v 1871 z"
         id="path13-823"
         style="fill:none;stroke:#000000;stroke-opacity:1" />
    </g>
    <g
       id="id4-166"
       style="fill:none;stroke:#000000;stroke-opacity:1"
       transform="matrix(0.01,0,0,0.01,652.2528,27.222922)"
       clip-path="url(#clipPath248)">
      <rect
         class="BoundingBox"
         stroke="none"
         fill="none"
         x="588"
         y="556"
         width="1304"
         height="1474"
         id="rect13-13"
         style="fill:none;stroke:#000000;stroke-opacity:1" />
      <path
         fill="none"
         stroke="#3465a4"
         stroke-width="100"
         stroke-linejoin="round"
         d="m 1841,1293 c 0,120 -28,238 -81,343 -52,104 -128,191 -220,251 -91,60 -195,92 -300,92 -106,0 -210,-32 -301,-92 -92,-60 -168,-147 -220,-251 -53,-105 -81,-223 -81,-343 0,-121 28,-239 81,-344 52,-104 128,-191 220,-251 91,-60 195,-92 300,-92 106,0 210,32 301,92 92,60 168,147 220,251 53,105 81,223 81,343 z"
         id="path14-40"
         style="fill:none;stroke:#000000;stroke-opacity:1" />
    </g>
    <g
       id="id5-82"
       style="fill:none;stroke:#000000;stroke-opacity:1"
       transform="matrix(0.01,0,0,0.01,652.2528,27.222922)"
       clip-path="url(#clipPath377)">
      <rect
         class="BoundingBox"
         stroke="none"
         fill="none"
         x="-50"
         y="-50"
         width="2601"
         height="2601"
         id="rect14-64"
         style="fill:none;stroke:#000000;stroke-opacity:1" />
      <path
         fill="none"
         stroke="#3465a4"
         stroke-width="100"
         stroke-linejoin="round"
         d="M 1250,0 H 2500 V 2500 H 0 V 0 Z"
         id="path15-23"
         style="fill:none;stroke:#000000;stroke-opacity:1" />
    </g>
  </g>
</svg>
