<?xml version="1.0" encoding="UTF-8" standalone="no"?>
<!-- Created with Inkscape (http://www.inkscape.org/) -->

<svg
   width="200mm"
   height="79.873245mm"
   viewBox="0 0 200 79.873245"
   version="1.1"
   id="svg1"
   xmlns="http://www.w3.org/2000/svg"
   xmlns:svg="http://www.w3.org/2000/svg">
  <defs
     id="defs1" />
  <g
     id="layer1"
     transform="translate(-4.9999995)">
    <path
       style="font-size:32px;font-family:'Lucid Urdu';-inkscape-font-specification:'Lucid Urdu';white-space:pre;fill:#0000ff;stroke-width:1.24;stroke-dasharray:none;paint-order:markers stroke fill"
       d="M 9.3642142,37.254511 V 35.667525 H 42.333864 v 1.586986 z m 32.9696498,0 V 35.667525 H 9.3642142 v 1.586986 z m -0.793495,0 H 10.157708 v -1.586986 h 31.382661 z m -1.825034,1.071217 V 4.126163 h 1.586986 v 34.199565 z m 1.586986,-0.03967 V 4.126163 h -1.586986 v 34.15989 z m 0,-33.3663966 V 37.49256 H 39.715335 V 4.9196564 Z M 10.395756,38.365402 V 4.1658377 h 1.62666 V 38.365402 Z m 1.62666,-0.03967 V 4.1658377 H 10.435429 V 38.325728 Z M 11.982741,4.9593311 V 37.532234 H 10.395756 V 4.9593311 Z M 4.9999998,41.301328 V -2.5157921e-6 H 46.30133 V 41.301328 Z M 46.261655,41.261653 V -2.5157921e-6 H 4.9999998 V 41.261653 Z m -40.4681618,0 c -0.43642,0 -0.7934934,-0.357072 -0.7934934,-0.793493 V 0.79349086 C 4.9999998,0.3570695 5.3570732,-2.515792e-6 5.7934932,-2.515792e-6 H 45.468162 c 0.436422,0 0.793493,0.357072015792 0.793493,0.793493375792 V 40.46816 c 0,0.436421 -0.357071,0.793493 -0.793493,0.793493 z M 44.674668,39.674666 V 1.5869842 H 6.5869862 V 39.674666 Z m 3.689745,-2.38048 v -1.626661 h 33.009321 v 1.626661 z M 81.33406,37.254506 V 35.667525 H 48.364413 v 1.586986 z m -0.793491,0 H 49.157906 V 35.66752 h 31.382663 z m -1.86471,1.110891 V 4.126163 h 1.626663 v 34.239239 z m 1.626663,0 V 4.1658377 H 78.715535 V 38.365402 Z m 0,-33.4457456 V 37.532234 H 78.715535 V 4.9196564 Z M 49.395955,38.365402 V 4.1658377 h 1.626662 V 38.365402 Z m 1.586987,0 V 4.1658377 H 49.395955 V 38.365402 Z m 0,-33.4060709 V 37.571909 H 49.395955 V 4.9593311 Z M 53.998215,33.088671 V 7.5381846 h 23.60643 V 33.088671 Z M 77.56497,33.049001 V 7.5381846 H 53.998215 V 33.048997 Z M 65.781592,9.1251713 c -5.673478,0 -10.19639,5.0783577 -10.19639,11.1882567 0,6.149574 4.562588,11.148582 10.19639,11.148582 5.673479,0 10.196391,-5.078358 10.196391,-11.148582 0,-6.149574 -4.562588,-11.1882567 -10.196391,-11.1882567 z m 0,23.9238257 c -6.506646,0 -11.783377,-5.713153 -11.783377,-12.735569 0,-7.022416 5.237057,-12.7752434 11.783377,-12.7752434 6.506647,0 11.783378,5.7131524 11.783378,12.7752434 0,6.982742 -5.237056,12.735569 -11.783378,12.735569 z M 44.674668,41.301328 V -2.5157921e-6 H 85.975996 V 41.301328 Z m 41.261653,-0.03967 V -2.5157921e-6 H 44.674668 V 41.261653 Z m -0.793493,0 H 45.468162 c -0.436422,0 -0.793494,-0.357072 -0.793494,-0.793493 V 0.79349086 c 0,-0.43642136 0.357072,-0.7934933757921 0.793494,-0.7934933757921 h 39.674666 c 0.436421,0 0.793493,0.3570720157921 0.793493,0.7934933757921 V 40.46816 c 0,0.436421 -0.357072,0.793493 -0.793493,0.793493 z M 84.349335,39.674666 V 1.5869842 H 46.261655 V 39.674666 Z m 5.514779,-2.658203 v -1.626661 h 28.883156 v 1.626661 z M 118.7076,36.976789 V 35.389802 H 89.903788 v 1.586987 z m -0.7935,0 H 90.697282 V 35.389802 H 117.9141 Z m -1.66633,0.991867 V 6.7050165 h 1.62666 V 37.968656 Z m 1.58698,0 V 6.7050165 h -1.58698 V 37.968656 Z m 0,-30.4701461 V 37.175162 h -1.58698 V 7.4985099 Z M 90.816306,38.00833 V 6.7050165 h 1.586986 V 38.00833 Z m 1.586986,0 V 6.7446912 H 90.816306 V 38.00833 Z m 0,-30.4701454 V 37.214837 H 90.816306 V 7.5381846 Z M 103.5122,37.968656 V 6.7050165 h 1.62666 V 37.968656 Z m 1.62666,0 V 6.7050165 h -1.58699 V 37.968656 Z m 0,-30.4701461 V 37.175162 h -1.58699 V 7.4985099 Z M 84.349335,41.301328 V -2.5157921e-6 H 125.65066 V 41.301328 Z m 41.261655,-0.03967 V -2.5157921e-6 H 84.349335 V 41.261653 Z M 124.8175,-2.5157921e-6 c 0.43642,0 0.79349,0.3570720157921 0.79349,0.7934933757921 V 40.46816 c 0,0.436421 -0.35707,0.793493 -0.79349,0.793493 H 85.142828 c -0.436421,0 -0.793493,-0.357072 -0.793493,-0.793493 V 0.79349086 c 0,-0.43642136 0.357072,-0.7934933757921 0.793493,-0.7934933757921 z M 85.936321,1.5869842 V 39.674666 H 124.024 V 1.5869842 Z M 129.38008,37.968656 V 3.7294164 h 1.62666 V 37.968656 Z m 1.62666,0 V 3.769091 h -1.58698 v 34.199565 z m -1.58698,-0.833169 V 4.5229097 h 1.58698 V 37.135487 Z m -1.03154,-0.238048 v -1.626661 h 33.00932 v 1.626661 z m 32.96965,-0.03967 v -1.586987 h -32.92998 v 1.586987 z m -0.7935,0 h -31.38266 v -1.586987 h 31.38266 z M 128.34854,6.4272938 V 4.8006324 h 33.00933 v 1.6266614 z m 32.96965,0 V 4.8403071 h -32.96965 v 1.5869867 z m -0.79349,0 H 129.14203 V 4.8403071 H 160.5247 Z M 124.024,41.301328 V -2.5157921e-6 h 41.30133 V 41.301328 Z m 41.26166,-0.03967 V -2.5157921e-6 H 124.024 V 41.261653 Z m -40.46816,0 c -0.43643,0 -0.7935,-0.357072 -0.7935,-0.793493 V 0.79349086 c 0,-0.43642136 0.35707,-0.7934933757921 0.7935,-0.7934933757921 h 39.67466 c 0.43643,0 0.7935,0.3570720157921 0.7935,0.7934933757921 V 40.46816 c 0,0.436421 -0.35707,0.793493 -0.7935,0.793493 z m 38.88117,-1.586987 V 1.5869842 H 125.61099 V 39.674666 Z m 4.16584,-0.317397 V 5.1577044 h 1.62666 V 39.357269 Z m 1.58699,-0.03968 V 5.1577044 h -1.58699 V 39.317594 Z m -1.58699,-0.793493 V 5.9511978 h 1.58699 V 38.524101 Z m -0.99187,-0.238048 v -1.626662 h 32.96965 v 1.626662 z m 32.96965,0 v -1.586987 h -32.96965 v 1.586987 z m -0.79349,-0.03968 h -31.38266 v -1.586987 h 31.38266 z m -32.29518,0.198374 V 4.2055124 h 33.00933 V 38.444752 Z m 33.00933,-0.03968 V 4.245187 h -33.00933 v 34.15989 z M 199.5249,5.5544511 168.14223,38.167029 166.99167,37.056138 198.37433,4.4832351 Z M 163.69867,41.301328 V -2.5157922e-6 H 205 V 41.301328 Z m 41.26166,-0.03967 V -2.5157922e-6 H 163.69867 V 41.261653 Z m -40.46817,0 c -0.43642,0 -0.79349,-0.357072 -0.79349,-0.793493 V 0.79349086 c 0,-0.43642136 0.35707,-0.7934933757921 0.79349,-0.7934933757921 h 39.67467 c 0.43642,0 0.7935,0.3570720157921 0.7935,0.7934933757921 V 40.46816 c 0,0.436421 -0.35708,0.793493 -0.7935,0.793493 z m 38.88118,-1.586987 V 1.5869842 H 165.28566 V 39.674666 Z"
       id="text1"
       aria-label="lucid" />
    <path
       style="font-size:32px;font-family:Ubuntu;-inkscape-font-specification:Ubuntu;white-space:pre;fill:#0000ff;stroke-width:1.24;stroke-dasharray:none;paint-order:markers stroke fill"
       d="M 71.67327,79.79389 Q 68.26124,79.71454 66.83296,78.325927 65.40467,76.937314 65.40467,74.001388 V 49.244395 L 69.09441,48.6096 v 24.796668 q 0,0.912518 0.1587,1.507638 0.1587,0.59512 0.51577,0.952192 0.35708,0.357072 0.95219,0.555445 0.59513,0.158699 1.46797,0.277723 z m 21.06727,-0.991867 q -1.26958,0.317398 -3.37234,0.67447 -2.06309,0.357072 -4.80064,0.357072 -2.38048,0 -4.00714,-0.67447 -1.62666,-0.714144 -2.61853,-1.983733 -0.99186,-1.269589 -1.42829,-2.9756 -0.43642,-1.745686 -0.43642,-3.848443 V 58.766316 h 3.68975 v 10.791509 q 0,3.769094 1.19024,5.395755 1.19024,1.626662 4.00714,1.626662 0.59512,0 1.22991,-0.03968 0.6348,-0.03967 1.19024,-0.07935 0.55545,-0.07935 0.99187,-0.119024 0.4761,-0.07935 0.67447,-0.158699 V 58.766316 h 3.68974 z m 15.3144,1.071216 q -2.4995,0 -4.40389,-0.793493 -1.8647,-0.793493 -3.17397,-2.221781 -1.26959,-1.428289 -1.90438,-3.372347 -0.6348,-1.983734 -0.6348,-4.364214 0,-2.38048 0.67447,-4.364213 0.71415,-1.983734 1.98373,-3.412022 1.26959,-1.467963 3.09463,-2.261456 1.86471,-0.833168 4.12616,-0.833168 1.38862,0 2.77723,0.238048 1.38861,0.238048 2.6582,0.753819 l -0.83316,3.134298 q -0.83317,-0.396746 -1.94406,-0.634794 -1.07122,-0.238048 -2.30113,-0.238048 -3.09463,0 -4.76096,1.944058 -1.62666,1.944059 -1.62666,5.673478 0,1.666336 0.35707,3.05495 0.39674,1.388613 1.19024,2.38048 0.83317,0.991866 2.10275,1.547312 1.26959,0.515771 3.09463,0.515771 1.46796,0 2.6582,-0.277723 1.19024,-0.277723 1.86471,-0.59512 l 0.51577,3.094624 q -0.3174,0.198373 -0.91252,0.396747 -0.59512,0.158698 -1.34893,0.277722 -0.75382,0.158699 -1.62667,0.238048 -0.83316,0.119024 -1.62666,0.119024 z m 13.172,-0.476096 h -3.68975 V 58.766316 h 3.68975 z m -1.86471,-24.360246 q -0.99187,0 -1.70601,-0.634795 -0.67447,-0.674469 -0.67447,-1.78536 0,-1.110891 0.67447,-1.745686 0.71414,-0.674469 1.70601,-0.674469 0.99187,0 1.66634,0.674469 0.71414,0.634795 0.71414,1.745686 0,1.110891 -0.71414,1.78536 -0.67447,0.634795 -1.66634,0.634795 z m 21.54336,8.093632 q -0.67447,-0.555445 -1.94406,-1.071216 -1.26959,-0.515771 -2.77723,-0.515771 -1.58699,0 -2.73755,0.59512 -1.11089,0.555446 -1.82504,1.586987 -0.71414,0.991867 -1.03154,2.38048 -0.3174,1.388614 -0.3174,2.9756 0,3.610395 1.78536,5.594129 1.78536,1.944059 4.76096,1.944059 1.50764,0 2.49951,-0.119024 1.03154,-0.158699 1.58699,-0.317398 z m 0,-13.886134 3.68974,-0.634795 v 30.192423 q -1.26959,0.357072 -3.25332,0.714144 -1.98374,0.357072 -4.56259,0.357072 -2.38048,0 -4.28486,-0.753818 -1.90439,-0.753819 -3.25333,-2.142432 -1.34894,-1.388614 -2.10275,-3.372347 -0.71415,-2.023408 -0.71415,-4.522913 0,-2.38048 0.59512,-4.364213 0.6348,-1.983734 1.82504,-3.412022 1.19024,-1.428288 2.89625,-2.221781 1.74568,-0.793493 3.96746,-0.793493 1.78536,0 3.1343,0.476096 1.38862,0.476096 2.06309,0.912517 z"
       id="text1-3"
       aria-label="lucid" />
  </g>
</svg>
